<?xml version="1.0" encoding="iso-8859-1"?>
<!-- Generator: Adobe Illustrator 25.4.1, SVG Export Plug-In . SVG Version: 6.00 Build 0)  -->
<svg version="1.1" id="Calque_1" xmlns="http://www.w3.org/2000/svg" xmlns:xlink="http://www.w3.org/1999/xlink" x="0px" y="0px"
	 viewBox="0 0 1920 662.511" style="enable-background:new 0 0 1920 662.511;" xml:space="preserve">
<g>
	<path style="fill:#FFFFFF;" d="M4735.502,404.912c-4.247-25.859-35.353-59.872-72.502-98.418
		c-27.142-28.168-72.273-21.61-100.271,0.998l-11.29,9.123l0.085,0.086l-15.909,12.887l-28.197-28.197v-0.086
		c-14.768-13.856-18.73-15.709-20.67-16.621c-14.483-7.128-31.503-5.332-44.419,4.647c-12.858,9.893-18.874,25.802-15.709,41.54
		c2.68,13.428,11.889,22.78,19.815,30.278h0.085l33.043,32.844l0.371,0.37l28.539,28.51c-5.246,3.05-9.75,7.356-13.399,12.773
		c-12.374,18.503-7.698,43.65,10.605,57.249c7.612,5.73,15.51,7.526,22.466,9.095l55.909,12.659c2.965,0.684,5.931,1.397,8.867,2.11
		l0.484,0.114c5.73,1.397,11.632,2.823,17.762,3.935c7.013,1.311,13.371,2.024,19.358,2.223c0.884,0.029,1.768,0.029,2.651,0.029
		c29.166,0,57.505-13.314,77.72-36.464C4731.226,463.302,4740.179,433.537,4735.502,404.912z M4688.49,467.008
		c-14.398,16.451-35.068,26.258-55.254,26.258h-0.713c-0.371,0-0.741,0-1.141-0.029c-10.121-0.257-20.47-2.765-31.475-5.417
		l-2.879-0.684c-2.11-0.514-4.248-1.027-6.387-1.511l-56.194-12.744c-4.676-1.055-8.354-1.882-10.977-3.878
		c-5.474-4.048-7.127-11.575-3.678-16.764c1.824-2.681,4.191-5.275,11.461-5.275c1.34,0,2.623,0.057,3.877,0.171
		c6.671,0.741,13.058-2.88,15.937-8.896c2.879-6.044,1.625-13.286-3.107-18.019l-19.045-19.016
		c-1.996-1.996-4.048-4.048-6.129-6.072l-4.276-4.277c-0.314-0.371-0.656-0.713-0.741-0.77l-28.91-28.91
		c-2.025-1.996-3.906-3.877-5.617-5.559l-0.627-0.656c-0.427-0.456-0.883-0.883-1.254-1.226l-7.983-7.983
		c-1.568-1.54-3.222-3.136-4.989-4.79c-5.702-5.389-11.576-10.948-12.573-15.938c-0.941-4.591,0.827-9.123,4.676-12.117
		c3.963-3.051,8.838-3.621,13.058-1.568c0.086,0.057,2.424,1.368,11.461,9.78l0.313,0.313c0.827,0.77,1.654,1.568,2.509,2.338
		l4.846,4.648c3.991,3.849,8.639,8.467,14.057,13.913l0.712,0.741c3.021,3.079,6.301,6.443,9.865,10.121
		c0.627,0.627,1.283,1.226,1.482,1.368c0.142,0.142,0.342,0.313,0.57,0.484c0.427,0.4,0.913,0.741,1.226,0.97
		c0.77,0.57,1.511,1.026,2.224,1.426c0.37,0.228,0.684,0.399,1.083,0.627c0.371,0.171,0.741,0.342,0.884,0.399
		c0.684,0.314,1.397,0.627,1.996,0.798c0.2,0.086,0.399,0.171,0.542,0.2c0.399,0.143,0.799,0.285,1.512,0.456
		c1.169,0.314,2.395,0.571,3.165,0.599c0.599,0.143,1.083,0.228,1.197,0.171c2.195,0.228,4.562,0.114,6.558-0.313
		c1.198-0.2,2.452-0.514,3.82-0.998c2.737-0.941,5.274-2.367,7.555-4.219l30.335-24.519c17.164-13.884,45.046-19.13,60.128-3.45
		c22.979,23.835,61.44,63.693,64.52,82.538C4709.359,429.574,4702.916,450.444,4688.49,467.008z M4383.085,362.004
		c-16.935,0-30.706-13.771-30.706-30.677V237.67c0-16.888,13.818-30.706,30.706-30.706h93.628c16.936,0,30.706,13.799,30.706,30.706
		v34.323c0,0.549,0.219,1.076,0.609,1.463l27.921,27.748c1.301,1.293,3.517,0.371,3.517-1.463v-61.986
		c0-34.64-28.197-62.808-62.809-62.808h-93.486c-34.688,0-62.809,28.12-62.809,62.809v93.485c0,34.688,28.12,62.809,62.809,62.809
		h62.683c1.836,0,2.757-2.22,1.459-3.519l-27.871-27.921c-0.387-0.388-0.912-0.605-1.459-0.605H4383.085z"/>
	<g>
		<g>
			<path style="fill:#FFFFFF;" d="M4953.808,301.562v-55.339h-53.4v-67.941h-62.125v41.255c0,7.755-2.395,14.17-7.271,19.159
				c-4.847,5.018-11.004,7.527-18.417,7.527h-13.627v55.339h34.469v97.534c0,20.413,3.308,36.978,9.95,49.78
				c6.643,12.773,15.624,22.38,26.942,28.852c11.319,6.472,24.177,10.293,38.575,11.404c14.398,1.14,29.366,0.257,44.904-2.651
				v-53.885c-8.411,1.312-16.735,1.711-25.004,1.198c-8.239-0.457-15.054-3.194-20.385-8.211
				c-5.332-5.018-8.011-13.856-8.011-26.486v-97.534H4953.808z"/>
			<path style="fill:#FFFFFF;" d="M5166.097,267.092c-17.477-16.165-42.395-24.262-74.754-24.262
				c-26.201,0-48.439,5.759-66.714,17.248c-18.276,11.461-30.677,28.226-37.149,50.236l53.885,19.387
				c3.222-11.005,9.067-19.33,17.477-24.975c8.411-5.674,18.275-8.525,29.622-8.525c12.916,0,22.467,3.022,28.625,9.01
				c6.13,5.987,9.208,12.203,9.208,18.674c0,9.722-6.642,15.709-19.9,17.962l-40.285,6.785c-15.196,2.595-29.594,6.5-43.194,11.661
				c-13.571,5.189-24.604,12.773-32.986,22.808c-8.439,10.035-12.63,23.293-12.63,39.801c0,22.637,7.783,39.886,23.293,51.689
				c15.539,11.804,34.783,17.706,57.763,17.706c16.821,0,30.335-2.994,40.513-8.981c10.207-5.987,19.33-13.998,27.427-24.006
				l4.847,29.594h61.156V330.671C5192.298,304.47,5183.574,283.287,5166.097,267.092z M5126.296,387.464
				c0,17.79-4.932,31.076-14.796,39.801c-9.865,8.752-22.096,13.086-36.665,13.086c-9.038,0-16.735-1.767-23.036-5.331
				c-6.329-3.535-9.465-9.209-9.465-16.964c0-13.942,10.834-22.637,32.501-26.23l31.077-5.331
				c9.722-1.625,16.508-3.707,20.385-6.301V387.464z"/>
			<path style="fill:#FFFFFF;" d="M5456.761,301.79c-9.066-18.589-21.696-33.072-37.861-43.421
				c-16.194-10.35-34.811-15.538-55.824-15.538c-15.852,0-29.936,2.851-42.224,8.496c-12.288,5.673-22.494,12.858-30.563,21.582
				V139.451h-66.03v349.453h60.186l3.877-30.079c8.411,8.724,18.76,16.479,31.076,23.294c12.288,6.785,26.857,10.178,43.678,10.178
				c21.013,0,39.629-5.103,55.824-15.282c16.166-10.207,28.795-24.69,37.861-43.45c9.039-18.76,13.572-40.77,13.572-66.001
				C5470.333,342.332,5465.799,320.408,5456.761,301.79z M5386.369,417.315c-11.004,11.49-24.091,17.22-39.316,17.22
				c-15.51,0-28.881-5.73-40.028-17.22c-11.177-11.49-16.736-28.083-16.736-49.751c0-21.668,5.559-38.347,16.736-49.98
				c11.147-11.66,24.519-17.477,40.028-17.477c15.225,0,28.312,5.816,39.316,17.477c11.005,11.633,16.508,28.311,16.508,49.98
				C5402.876,389.232,5397.374,405.825,5386.369,417.315z"/>
			<path style="fill:#FFFFFF;" d="M5716.578,301.305c-11.005-18.589-25.888-32.986-44.647-43.193
				c-18.76-10.178-39.8-15.281-63.094-15.281c-23.635,0-44.732,5.103-63.321,15.281c-18.646,10.207-33.415,24.604-44.42,43.193
				c-11.004,18.617-16.507,40.713-16.507,66.259c0,25.573,5.331,47.641,16.022,66.23c10.663,18.646,25.232,33.015,43.678,43.222
				c18.446,10.178,39.316,15.282,62.609,15.282c23.607,0,44.961-5.103,64.063-15.282c19.074-10.207,34.213-24.576,45.389-43.222
				c11.148-18.589,16.736-40.657,16.736-66.23C5733.085,342.018,5727.583,319.922,5716.578,301.305z M5657.104,405.654
				c-5.645,10.207-12.915,17.733-21.81,22.58c-8.896,4.847-18.389,7.27-28.396,7.27c-14.911,0-27.769-5.559-38.575-16.735
				c-10.863-11.148-16.279-28.226-16.279-51.205c0-22.98,5.588-40.114,16.764-51.433c11.148-11.347,24.178-16.992,39.06-16.992
				c15.196,0,28.625,5.645,40.286,16.992c11.661,11.319,17.477,28.453,17.477,51.433
				C5665.629,382.788,5662.778,395.475,5657.104,405.654z"/>
		</g>
	</g>
</g>
<g>
	<path d="M2721.545,404.912c-4.247-25.859-35.353-59.872-72.502-98.418c-27.142-28.168-72.274-21.61-100.271,0.998l-11.29,9.123
		l0.086,0.086l-15.909,12.887l-28.197-28.197v-0.086c-14.768-13.856-18.731-15.709-20.67-16.621
		c-14.483-7.128-31.503-5.332-44.419,4.647c-12.858,9.893-18.874,25.802-15.709,41.54c2.68,13.428,11.889,22.78,19.815,30.278h0.086
		l33.043,32.844l0.371,0.37l28.539,28.51c-5.246,3.05-9.75,7.356-13.4,12.773c-12.374,18.503-7.698,43.65,10.606,57.249
		c7.612,5.73,15.51,7.526,22.466,9.095l55.909,12.659c2.965,0.684,5.93,1.397,8.867,2.11l0.484,0.114
		c5.731,1.397,11.633,2.823,17.762,3.935c7.014,1.311,13.371,2.024,19.359,2.223c0.884,0.029,1.767,0.029,2.651,0.029
		c29.166,0,57.506-13.314,77.72-36.464C2717.269,463.302,2726.221,433.537,2721.545,404.912z M2674.532,467.008
		c-14.398,16.451-35.068,26.258-55.254,26.258h-0.713c-0.371,0-0.741,0-1.141-0.029c-10.121-0.257-20.47-2.765-31.475-5.417
		l-2.88-0.684c-2.11-0.514-4.248-1.027-6.386-1.511l-56.195-12.744c-4.675-1.055-8.353-1.882-10.976-3.878
		c-5.474-4.048-7.128-11.575-3.678-16.764c1.824-2.681,4.191-5.275,11.461-5.275c1.34,0,2.623,0.057,3.878,0.171
		c6.671,0.741,13.057-2.88,15.937-8.896c2.88-6.044,1.625-13.286-3.107-18.019l-19.045-19.016c-1.996-1.996-4.048-4.048-6.129-6.072
		l-4.277-4.277c-0.314-0.371-0.656-0.713-0.741-0.77l-28.909-28.91c-2.025-1.996-3.906-3.877-5.617-5.559l-0.627-0.656
		c-0.427-0.456-0.883-0.883-1.254-1.226l-7.983-7.983c-1.568-1.54-3.221-3.136-4.99-4.79c-5.702-5.389-11.575-10.948-12.573-15.938
		c-0.941-4.591,0.827-9.123,4.675-12.117c3.963-3.051,8.839-3.621,13.058-1.568c0.086,0.057,2.424,1.368,11.461,9.78l0.313,0.313
		c0.827,0.77,1.654,1.568,2.509,2.338l4.847,4.648c3.991,3.849,8.639,8.467,14.056,13.913l0.713,0.741
		c3.021,3.079,6.301,6.443,9.865,10.121c0.627,0.627,1.283,1.226,1.483,1.368c0.142,0.142,0.342,0.313,0.57,0.484
		c0.427,0.4,0.912,0.741,1.226,0.97c0.77,0.57,1.511,1.026,2.224,1.426c0.37,0.228,0.684,0.399,1.083,0.627
		c0.371,0.171,0.741,0.342,0.884,0.399c0.684,0.314,1.397,0.627,1.995,0.798c0.2,0.086,0.4,0.171,0.542,0.2
		c0.399,0.143,0.799,0.285,1.512,0.456c1.169,0.314,2.395,0.571,3.164,0.599c0.599,0.143,1.083,0.228,1.197,0.171
		c2.195,0.228,4.562,0.114,6.557-0.313c1.198-0.2,2.452-0.514,3.821-0.998c2.737-0.941,5.274-2.367,7.555-4.219l30.336-24.519
		c17.163-13.884,45.046-19.13,60.128-3.45c22.979,23.835,61.44,63.693,64.52,82.538
		C2695.401,429.574,2688.958,450.444,2674.532,467.008z M2369.127,362.004c-16.935,0-30.706-13.771-30.706-30.677V237.67
		c0-16.888,13.818-30.706,30.706-30.706h93.628c16.936,0,30.706,13.799,30.706,30.706v34.323c0,0.549,0.219,1.076,0.609,1.463
		l27.922,27.748c1.301,1.293,3.516,0.371,3.516-1.463v-61.986c0-34.64-28.197-62.808-62.809-62.808h-93.486
		c-34.688,0-62.809,28.12-62.809,62.809v93.485c0,34.688,28.12,62.809,62.809,62.809h62.683c1.836,0,2.757-2.22,1.46-3.519
		l-27.871-27.921c-0.387-0.388-0.912-0.605-1.46-0.605H2369.127z"/>
	<g>
		<g>
			<path d="M2939.85,301.562v-55.339h-53.4v-67.941h-62.124v41.255c0,7.755-2.395,14.17-7.271,19.159
				c-4.846,5.018-11.005,7.527-18.417,7.527h-13.627v55.339h34.469v97.534c0,20.413,3.308,36.978,9.95,49.78
				c6.643,12.773,15.624,22.38,26.942,28.852c11.319,6.472,24.177,10.293,38.575,11.404c14.398,1.14,29.366,0.257,44.904-2.651
				v-53.885c-8.41,1.312-16.735,1.711-25.004,1.198c-8.239-0.457-15.054-3.194-20.385-8.211c-5.332-5.018-8.012-13.856-8.012-26.486
				v-97.534H2939.85z"/>
			<path d="M3152.139,267.092c-17.477-16.165-42.395-24.262-74.754-24.262c-26.201,0-48.439,5.759-66.714,17.248
				c-18.276,11.461-30.677,28.226-37.149,50.236l53.885,19.387c3.222-11.005,9.067-19.33,17.477-24.975
				c8.41-5.674,18.275-8.525,29.622-8.525c12.915,0,22.467,3.022,28.625,9.01c6.13,5.987,9.209,12.203,9.209,18.674
				c0,9.722-6.642,15.709-19.9,17.962l-40.285,6.785c-15.196,2.595-29.594,6.5-43.194,11.661
				c-13.571,5.189-24.604,12.773-32.986,22.808c-8.44,10.035-12.631,23.293-12.631,39.801c0,22.637,7.783,39.886,23.293,51.689
				c15.539,11.804,34.783,17.706,57.763,17.706c16.821,0,30.335-2.994,40.513-8.981c10.206-5.987,19.33-13.998,27.427-24.006
				l4.847,29.594h61.156V330.671C3178.341,304.47,3169.616,283.287,3152.139,267.092z M3112.339,387.464
				c0,17.79-4.932,31.076-14.797,39.801c-9.865,8.752-22.095,13.086-36.665,13.086c-9.038,0-16.735-1.767-23.036-5.331
				c-6.329-3.535-9.466-9.209-9.466-16.964c0-13.942,10.834-22.637,32.501-26.23l31.077-5.331
				c9.722-1.625,16.508-3.707,20.385-6.301V387.464z"/>
			<path d="M3442.803,301.79c-9.066-18.589-21.696-33.072-37.861-43.421c-16.194-10.35-34.811-15.538-55.824-15.538
				c-15.852,0-29.936,2.851-42.224,8.496c-12.288,5.673-22.495,12.858-30.563,21.582V139.451h-66.03v349.453h60.185l3.878-30.079
				c8.41,8.724,18.76,16.479,31.076,23.294c12.288,6.785,26.857,10.178,43.678,10.178c21.012,0,39.629-5.103,55.824-15.282
				c16.165-10.207,28.795-24.69,37.861-43.45c9.038-18.76,13.572-40.77,13.572-66.001
				C3456.375,342.332,3451.842,320.408,3442.803,301.79z M3372.411,417.315c-11.005,11.49-24.091,17.22-39.316,17.22
				c-15.51,0-28.881-5.73-40.028-17.22c-11.177-11.49-16.736-28.083-16.736-49.751c0-21.668,5.559-38.347,16.736-49.98
				c11.147-11.66,24.519-17.477,40.028-17.477c15.225,0,28.311,5.816,39.316,17.477c11.005,11.633,16.508,28.311,16.508,49.98
				C3388.919,389.232,3383.417,405.825,3372.411,417.315z"/>
			<path d="M3702.62,301.305c-11.005-18.589-25.888-32.986-44.647-43.193c-18.76-10.178-39.801-15.281-63.094-15.281
				c-23.635,0-44.733,5.103-63.322,15.281c-18.646,10.207-33.414,24.604-44.42,43.193c-11.005,18.617-16.507,40.713-16.507,66.259
				c0,25.573,5.331,47.641,16.023,66.23c10.663,18.646,25.232,33.015,43.678,43.222c18.446,10.178,39.316,15.282,62.609,15.282
				c23.607,0,44.961-5.103,64.063-15.282c19.073-10.207,34.213-24.576,45.388-43.222c11.148-18.589,16.736-40.657,16.736-66.23
				C3719.128,342.018,3713.625,319.922,3702.62,301.305z M3643.147,405.654c-5.645,10.207-12.915,17.733-21.81,22.58
				c-8.896,4.847-18.389,7.27-28.396,7.27c-14.911,0-27.769-5.559-38.575-16.735c-10.863-11.148-16.28-28.226-16.28-51.205
				c0-22.98,5.588-40.114,16.764-51.433c11.148-11.347,24.177-16.992,39.059-16.992c15.196,0,28.625,5.645,40.286,16.992
				c11.661,11.319,17.477,28.453,17.477,51.433C3651.672,382.788,3648.821,395.475,3643.147,405.654z"/>
		</g>
	</g>
</g>
<g>
	<g>
		<g>
			<g>
				<path style="fill:#FF5001;" d="M668.779,404.912c-4.247-25.859-35.353-59.872-72.502-98.418
					c-27.142-28.168-72.274-21.61-100.271,0.998l-11.29,9.123l0.086,0.086l-15.909,12.887l-28.197-28.197v-0.086
					c-14.768-13.856-18.731-15.709-20.67-16.621c-14.483-7.128-31.504-5.332-44.419,4.647c-12.858,9.893-18.874,25.802-15.709,41.54
					c2.68,13.428,11.889,22.78,19.815,30.278h0.086l33.043,32.844l0.371,0.37l28.539,28.51c-5.246,3.05-9.75,7.356-13.4,12.773
					c-12.374,18.503-7.698,43.65,10.606,57.249c7.612,5.73,15.51,7.526,22.466,9.095l55.909,12.659
					c2.965,0.684,5.93,1.397,8.867,2.11l0.484,0.114c5.731,1.397,11.633,2.823,17.762,3.935c7.013,1.311,13.371,2.024,19.359,2.223
					c0.884,0.029,1.767,0.029,2.651,0.029c29.166,0,57.505-13.314,77.72-36.464C664.503,463.302,673.455,433.537,668.779,404.912z
					 M621.766,467.008c-14.398,16.451-35.068,26.258-55.254,26.258H565.8c-0.371,0-0.741,0-1.141-0.029
					c-10.121-0.257-20.47-2.765-31.475-5.417l-2.88-0.684c-2.11-0.514-4.248-1.027-6.386-1.511l-56.195-12.744
					c-4.675-1.055-8.353-1.882-10.976-3.878c-5.474-4.048-7.128-11.575-3.678-16.764c1.824-2.681,4.191-5.275,11.461-5.275
					c1.34,0,2.623,0.057,3.878,0.171c6.671,0.741,13.057-2.88,15.937-8.896c2.88-6.044,1.625-13.286-3.107-18.019l-19.046-19.016
					c-1.996-1.996-4.048-4.048-6.129-6.072l-4.277-4.277c-0.314-0.371-0.656-0.713-0.741-0.77l-28.909-28.91
					c-2.025-1.996-3.906-3.877-5.617-5.559l-0.627-0.656c-0.427-0.456-0.883-0.883-1.254-1.226l-7.983-7.983
					c-1.568-1.54-3.221-3.136-4.989-4.79c-5.702-5.389-11.575-10.948-12.573-15.938c-0.941-4.591,0.827-9.123,4.675-12.117
					c3.963-3.051,8.839-3.621,13.058-1.568c0.086,0.057,2.424,1.368,11.461,9.78l0.313,0.313c0.827,0.77,1.654,1.568,2.509,2.338
					l4.847,4.648c3.991,3.849,8.639,8.467,14.056,13.913l0.713,0.741c3.022,3.079,6.301,6.443,9.865,10.121
					c0.627,0.627,1.283,1.226,1.483,1.368c0.142,0.142,0.342,0.313,0.57,0.484c0.427,0.4,0.913,0.741,1.226,0.97
					c0.77,0.57,1.511,1.026,2.224,1.426c0.37,0.228,0.684,0.399,1.083,0.627c0.371,0.171,0.741,0.342,0.884,0.399
					c0.684,0.314,1.397,0.627,1.996,0.798c0.2,0.086,0.4,0.171,0.542,0.2c0.4,0.143,0.799,0.285,1.512,0.456
					c1.169,0.314,2.394,0.571,3.164,0.599c0.599,0.143,1.083,0.228,1.197,0.171c2.195,0.228,4.562,0.114,6.558-0.313
					c1.198-0.2,2.452-0.514,3.821-0.998c2.737-0.941,5.274-2.367,7.555-4.219l30.336-24.519c17.163-13.884,45.046-19.13,60.128-3.45
					c22.98,23.835,61.44,63.693,64.52,82.538C642.635,429.574,636.192,450.444,621.766,467.008z M316.361,362.004
					c-16.935,0-30.706-13.771-30.706-30.677V237.67c0-16.888,13.818-30.706,30.706-30.706h93.628
					c16.936,0,30.706,13.799,30.706,30.706v34.323c0,0.549,0.219,1.076,0.609,1.463l27.922,27.748
					c1.301,1.293,3.516,0.371,3.516-1.463v-61.986c0-34.64-28.197-62.808-62.809-62.808h-93.486
					c-34.688,0-62.809,28.12-62.809,62.809v93.485c0,34.688,28.12,62.809,62.809,62.809h62.683c1.837,0,2.757-2.22,1.46-3.519
					l-27.871-27.921c-0.387-0.388-0.912-0.605-1.46-0.605H316.361z"/>
			</g>
		</g>
		<g>
			<g>
				<path style="fill:#FF5001;" d="M887.084,301.562v-55.339h-53.4v-67.941H771.56v41.255c0,7.755-2.394,14.17-7.27,19.159
					c-4.847,5.018-11.005,7.527-18.418,7.527h-13.627v55.339h34.469v97.534c0,20.413,3.308,36.978,9.95,49.78
					c6.643,12.773,15.624,22.38,26.942,28.852c11.319,6.472,24.177,10.293,38.575,11.404c14.398,1.14,29.366,0.257,44.904-2.651
					v-53.885c-8.41,1.312-16.735,1.711-25.004,1.198c-8.239-0.457-15.054-3.194-20.385-8.211
					c-5.332-5.018-8.012-13.856-8.012-26.486v-97.534H887.084z"/>
				<path style="fill:#FF5001;" d="M1099.373,267.092c-17.477-16.165-42.395-24.262-74.754-24.262
					c-26.201,0-48.439,5.759-66.714,17.248c-18.276,11.461-30.677,28.226-37.149,50.236l53.885,19.387
					c3.222-11.005,9.067-19.33,17.477-24.975c8.41-5.674,18.275-8.525,29.622-8.525c12.915,0,22.467,3.022,28.625,9.01
					c6.13,5.987,9.209,12.203,9.209,18.674c0,9.722-6.642,15.709-19.9,17.962l-40.285,6.785c-15.196,2.595-29.594,6.5-43.194,11.661
					c-13.571,5.189-24.604,12.773-32.986,22.808c-8.44,10.035-12.631,23.293-12.631,39.801c0,22.637,7.783,39.886,23.293,51.689
					c15.539,11.804,34.783,17.706,57.763,17.706c16.821,0,30.335-2.994,40.513-8.981c10.206-5.987,19.329-13.998,27.427-24.006
					l4.847,29.594h61.156V330.671C1125.575,304.47,1116.85,283.287,1099.373,267.092z M1059.573,387.464
					c0,17.79-4.932,31.076-14.797,39.801c-9.865,8.752-22.096,13.086-36.665,13.086c-9.038,0-16.735-1.767-23.036-5.331
					c-6.329-3.535-9.466-9.209-9.466-16.964c0-13.942,10.834-22.637,32.502-26.23l31.077-5.331
					c9.722-1.625,16.508-3.707,20.385-6.301V387.464z"/>
				<path style="fill:#FF5001;" d="M1390.038,301.79c-9.066-18.589-21.696-33.072-37.861-43.421
					c-16.194-10.35-34.811-15.538-55.824-15.538c-15.852,0-29.936,2.851-42.224,8.496c-12.288,5.673-22.495,12.858-30.563,21.582
					V139.451h-66.03v349.453h60.185l3.878-30.079c8.411,8.724,18.759,16.479,31.076,23.294
					c12.288,6.785,26.857,10.178,43.678,10.178c21.013,0,39.629-5.103,55.824-15.282c16.165-10.207,28.795-24.69,37.861-43.45
					c9.038-18.76,13.572-40.77,13.572-66.001C1403.609,342.332,1399.076,320.408,1390.038,301.79z M1319.645,417.315
					c-11.005,11.49-24.091,17.22-39.316,17.22c-15.51,0-28.881-5.73-40.028-17.22c-11.177-11.49-16.736-28.083-16.736-49.751
					c0-21.668,5.559-38.347,16.736-49.98c11.147-11.66,24.519-17.477,40.028-17.477c15.225,0,28.311,5.816,39.316,17.477
					c11.005,11.633,16.508,28.311,16.508,49.98C1336.153,389.232,1330.651,405.825,1319.645,417.315z"/>
				<path style="fill:#FF5001;" d="M1649.854,301.305c-11.005-18.589-25.888-32.986-44.647-43.193
					c-18.76-10.178-39.801-15.281-63.094-15.281c-23.635,0-44.733,5.103-63.322,15.281c-18.646,10.207-33.414,24.604-44.42,43.193
					c-11.005,18.617-16.507,40.713-16.507,66.259c0,25.573,5.331,47.641,16.023,66.23c10.663,18.646,25.232,33.015,43.678,43.222
					c18.446,10.178,39.316,15.282,62.609,15.282c23.607,0,44.961-5.103,64.063-15.282c19.073-10.207,34.213-24.576,45.389-43.222
					c11.148-18.589,16.736-40.657,16.736-66.23C1666.362,342.018,1660.859,319.922,1649.854,301.305z M1590.381,405.654
					c-5.645,10.207-12.915,17.733-21.81,22.58c-8.896,4.847-18.389,7.27-28.396,7.27c-14.911,0-27.769-5.559-38.575-16.735
					c-10.863-11.148-16.279-28.226-16.279-51.205c0-22.98,5.588-40.114,16.764-51.433c11.148-11.347,24.178-16.992,39.059-16.992
					c15.196,0,28.625,5.645,40.286,16.992c11.661,11.319,17.477,28.453,17.477,51.433
					C1598.906,382.788,1596.055,395.475,1590.381,405.654z"/>
			</g>
		</g>
	</g>
</g>
<g>
	<g>
		<g>
			<g>
				<path style="fill:#FF5001;" d="M-1380.923,404.912c-4.247-25.859-35.353-59.872-72.502-98.418
					c-27.142-28.168-72.274-21.61-100.271,0.998l-11.29,9.123l0.086,0.086l-15.909,12.887l-28.197-28.197v-0.086
					c-14.768-13.856-18.731-15.709-20.67-16.621c-14.483-7.128-31.504-5.332-44.419,4.647c-12.858,9.893-18.874,25.802-15.709,41.54
					c2.68,13.428,11.889,22.78,19.815,30.278h0.086l33.043,32.844l0.371,0.37l28.539,28.51c-5.246,3.05-9.75,7.356-13.4,12.773
					c-12.374,18.503-7.698,43.65,10.606,57.249c7.612,5.73,15.51,7.526,22.466,9.095l55.909,12.659
					c2.965,0.684,5.93,1.397,8.867,2.11l0.484,0.114c5.731,1.397,11.633,2.823,17.762,3.935c7.014,1.311,13.371,2.024,19.359,2.223
					c0.884,0.029,1.767,0.029,2.651,0.029c29.166,0,57.505-13.314,77.72-36.464
					C-1385.199,463.302-1376.247,433.537-1380.923,404.912z M-1427.936,467.008c-14.398,16.451-35.068,26.258-55.254,26.258h-0.713
					c-0.371,0-0.741,0-1.141-0.029c-10.121-0.257-20.47-2.765-31.475-5.417l-2.88-0.684c-2.11-0.514-4.248-1.027-6.386-1.511
					l-56.195-12.744c-4.675-1.055-8.353-1.882-10.976-3.878c-5.474-4.048-7.128-11.575-3.678-16.764
					c1.824-2.681,4.191-5.275,11.461-5.275c1.34,0,2.623,0.057,3.878,0.171c6.671,0.741,13.057-2.88,15.937-8.896
					c2.88-6.044,1.625-13.286-3.107-18.019l-19.046-19.016c-1.996-1.996-4.048-4.048-6.129-6.072l-4.277-4.277
					c-0.314-0.371-0.656-0.713-0.741-0.77l-28.909-28.91c-2.025-1.996-3.906-3.877-5.617-5.559l-0.627-0.656
					c-0.427-0.456-0.883-0.883-1.254-1.226l-7.983-7.983c-1.568-1.54-3.221-3.136-4.989-4.79
					c-5.702-5.389-11.575-10.948-12.573-15.938c-0.941-4.591,0.827-9.123,4.675-12.117c3.963-3.051,8.839-3.621,13.058-1.568
					c0.086,0.057,2.424,1.368,11.461,9.78l0.313,0.313c0.827,0.77,1.654,1.568,2.509,2.338l4.847,4.648
					c3.991,3.849,8.639,8.467,14.056,13.913l0.713,0.741c3.022,3.079,6.301,6.443,9.865,10.121c0.627,0.627,1.283,1.226,1.483,1.368
					c0.142,0.142,0.342,0.313,0.57,0.484c0.427,0.4,0.912,0.741,1.226,0.97c0.77,0.57,1.511,1.026,2.224,1.426
					c0.37,0.228,0.684,0.399,1.083,0.627c0.371,0.171,0.741,0.342,0.884,0.399c0.684,0.314,1.397,0.627,1.996,0.798
					c0.2,0.086,0.4,0.171,0.542,0.2c0.4,0.143,0.799,0.285,1.512,0.456c1.169,0.314,2.394,0.571,3.164,0.599
					c0.599,0.143,1.083,0.228,1.197,0.171c2.195,0.228,4.562,0.114,6.557-0.313c1.198-0.2,2.452-0.514,3.821-0.998
					c2.737-0.941,5.274-2.367,7.555-4.219l30.336-24.519c17.163-13.884,45.046-19.13,60.128-3.45
					c22.98,23.835,61.44,63.693,64.52,82.538C-1407.067,429.574-1413.51,450.444-1427.936,467.008z M-1733.341,362.004
					c-16.935,0-30.706-13.771-30.706-30.677V237.67c0-16.888,13.818-30.706,30.706-30.706h93.628
					c16.936,0,30.706,13.799,30.706,30.706v34.323c0,0.549,0.219,1.076,0.609,1.463l27.922,27.748
					c1.301,1.293,3.516,0.371,3.516-1.463v-61.986c0-34.64-28.197-62.808-62.809-62.808h-93.486
					c-34.688,0-62.809,28.12-62.809,62.809v93.485c0,34.688,28.12,62.809,62.809,62.809h62.682c1.837,0,2.757-2.22,1.46-3.519
					l-27.871-27.921c-0.387-0.388-0.912-0.605-1.46-0.605H-1733.341z"/>
			</g>
		</g>
		<g>
			<g>
				<path style="fill:#FFFFFF;" d="M-1162.618,301.562v-55.339h-53.4v-67.941h-62.124v41.255c0,7.755-2.394,14.17-7.27,19.159
					c-4.847,5.018-11.005,7.527-18.418,7.527h-13.627v55.339h34.469v97.534c0,20.413,3.308,36.978,9.95,49.78
					c6.643,12.773,15.624,22.38,26.942,28.852c11.319,6.472,24.177,10.293,38.575,11.404c14.398,1.14,29.366,0.257,44.904-2.651
					v-53.885c-8.41,1.312-16.735,1.711-25.004,1.198c-8.239-0.457-15.054-3.194-20.385-8.211
					c-5.332-5.018-8.012-13.856-8.012-26.486v-97.534H-1162.618z"/>
				<path style="fill:#FFFFFF;" d="M-950.329,267.092c-17.477-16.165-42.395-24.262-74.754-24.262
					c-26.201,0-48.439,5.759-66.714,17.248c-18.276,11.461-30.677,28.226-37.149,50.236l53.885,19.387
					c3.222-11.005,9.067-19.33,17.477-24.975c8.41-5.674,18.275-8.525,29.622-8.525c12.915,0,22.467,3.022,28.625,9.01
					c6.13,5.987,9.209,12.203,9.209,18.674c0,9.722-6.642,15.709-19.9,17.962l-40.285,6.785c-15.196,2.595-29.594,6.5-43.194,11.661
					c-13.571,5.189-24.604,12.773-32.986,22.808c-8.44,10.035-12.631,23.293-12.631,39.801c0,22.637,7.783,39.886,23.293,51.689
					c15.539,11.804,34.783,17.706,57.763,17.706c16.821,0,30.335-2.994,40.513-8.981c10.206-5.987,19.329-13.998,27.427-24.006
					l4.847,29.594h61.156V330.671C-924.127,304.47-932.852,283.287-950.329,267.092z M-990.129,387.464
					c0,17.79-4.932,31.076-14.797,39.801c-9.865,8.752-22.096,13.086-36.665,13.086c-9.038,0-16.735-1.767-23.036-5.331
					c-6.329-3.535-9.466-9.209-9.466-16.964c0-13.942,10.834-22.637,32.502-26.23l31.077-5.331
					c9.722-1.625,16.508-3.707,20.385-6.301V387.464z"/>
				<path style="fill:#FFFFFF;" d="M-659.665,301.79c-9.066-18.589-21.696-33.072-37.861-43.421
					c-16.194-10.35-34.811-15.538-55.824-15.538c-15.852,0-29.936,2.851-42.224,8.496c-12.288,5.673-22.495,12.858-30.563,21.582
					V139.451h-66.03v349.453h60.185l3.878-30.079c8.41,8.724,18.759,16.479,31.076,23.294c12.288,6.785,26.857,10.178,43.678,10.178
					c21.013,0,39.629-5.103,55.824-15.282c16.165-10.207,28.795-24.69,37.861-43.45c9.038-18.76,13.572-40.77,13.572-66.001
					C-646.093,342.332-650.626,320.408-659.665,301.79z M-730.057,417.315c-11.005,11.49-24.091,17.22-39.316,17.22
					c-15.51,0-28.881-5.73-40.028-17.22c-11.177-11.49-16.736-28.083-16.736-49.751c0-21.668,5.559-38.347,16.736-49.98
					c11.147-11.66,24.519-17.477,40.028-17.477c15.225,0,28.311,5.816,39.316,17.477c11.005,11.633,16.508,28.311,16.508,49.98
					C-713.549,389.232-719.051,405.825-730.057,417.315z"/>
				<path style="fill:#FFFFFF;" d="M-399.848,301.305c-11.005-18.589-25.888-32.986-44.647-43.193
					c-18.76-10.178-39.801-15.281-63.094-15.281c-23.635,0-44.733,5.103-63.322,15.281c-18.646,10.207-33.414,24.604-44.42,43.193
					c-11.005,18.617-16.507,40.713-16.507,66.259c0,25.573,5.331,47.641,16.023,66.23c10.663,18.646,25.232,33.015,43.678,43.222
					c18.446,10.178,39.316,15.282,62.609,15.282c23.607,0,44.961-5.103,64.063-15.282c19.073-10.207,34.213-24.576,45.388-43.222
					c11.148-18.589,16.736-40.657,16.736-66.23C-383.34,342.018-388.843,319.922-399.848,301.305z M-459.321,405.654
					c-5.645,10.207-12.915,17.733-21.81,22.58c-8.896,4.847-18.389,7.27-28.396,7.27c-14.911,0-27.769-5.559-38.575-16.735
					c-10.863-11.148-16.279-28.226-16.279-51.205c0-22.98,5.588-40.114,16.764-51.433c11.148-11.347,24.178-16.992,39.059-16.992
					c15.196,0,28.625,5.645,40.286,16.992c11.661,11.319,17.477,28.453,17.477,51.433
					C-450.796,382.788-453.647,395.475-459.321,405.654z"/>
			</g>
		</g>
	</g>
</g>
<g>
	<path style="fill:#FFFFFF;" d="M-1001.114,1379.666c-6.794-41.364-56.55-95.771-115.974-157.429
		c-43.416-45.057-115.609-34.568-160.393,1.597l-18.059,14.594l0.137,0.137l-25.448,20.614l-45.104-45.104v-0.137
		c-23.623-22.163-29.962-25.127-33.064-26.587c-23.167-11.401-50.393-8.529-71.052,7.433
		c-20.568,15.825-30.191,41.273-25.129,66.447c4.287,21.48,19.017,36.438,31.695,48.433h0.137l52.856,52.537l0.593,0.592
		l45.651,45.605c-8.392,4.879-15.597,11.766-21.434,20.431c-19.793,29.598-12.313,69.822,16.965,91.576
		c12.176,9.166,24.809,12.039,35.936,14.548l89.432,20.248c4.743,1.094,9.486,2.235,14.184,3.375l0.775,0.183
		c9.167,2.235,18.607,4.515,28.412,6.294c11.219,2.098,21.389,3.238,30.966,3.556c1.414,0.046,2.827,0.046,4.241,0.046
		c46.654,0,91.985-21.297,124.32-58.328C-1007.954,1473.065-993.634,1425.454-1001.114,1379.666z M-1076.315,1478.994
		c-23.031,26.314-56.095,42.002-88.383,42.002h-1.14c-0.593,0-1.186,0-1.825-0.046c-16.189-0.411-32.744-4.424-50.347-8.665
		l-4.606-1.094c-3.375-0.822-6.795-1.642-10.216-2.417l-89.889-20.385c-7.479-1.688-13.362-3.011-17.557-6.203
		c-8.756-6.476-11.401-18.515-5.883-26.815c2.918-4.288,6.704-8.437,18.333-8.437c2.143,0,4.195,0.091,6.203,0.274
		c10.671,1.186,20.886-4.606,25.493-14.229c4.606-9.668,2.6-21.252-4.97-28.823l-30.465-30.418
		c-3.192-3.192-6.476-6.476-9.805-9.713l-6.841-6.841c-0.502-0.594-1.049-1.14-1.186-1.231l-46.243-46.244
		c-3.239-3.192-6.248-6.202-8.985-8.893l-1.003-1.049c-0.684-0.729-1.413-1.413-2.006-1.961l-12.77-12.77
		c-2.507-2.463-5.153-5.016-7.981-7.661c-9.121-8.62-18.516-17.513-20.111-25.494c-1.505-7.343,1.323-14.593,7.479-19.382
		c6.34-4.88,14.138-5.792,20.888-2.508c0.137,0.091,3.877,2.189,18.333,15.643l0.501,0.501c1.323,1.231,2.646,2.508,4.014,3.74
		l7.753,7.434c6.384,6.156,13.818,13.544,22.484,22.255l1.14,1.186c4.833,4.925,10.079,10.307,15.779,16.19
		c1.003,1.003,2.052,1.961,2.372,2.189c0.227,0.227,0.547,0.501,0.912,0.775c0.684,0.639,1.46,1.186,1.961,1.551
		c1.231,0.912,2.417,1.641,3.557,2.28c0.592,0.364,1.094,0.638,1.732,1.003c0.593,0.274,1.186,0.547,1.414,0.638
		c1.094,0.502,2.235,1.003,3.192,1.277c0.319,0.137,0.639,0.274,0.866,0.319c0.639,0.228,1.278,0.455,2.418,0.729
		c1.869,0.502,3.83,0.913,5.062,0.958c0.958,0.228,1.732,0.365,1.915,0.274c3.512,0.365,7.297,0.183,10.489-0.501
		c1.916-0.32,3.923-0.822,6.112-1.597c4.378-1.505,8.436-3.786,12.085-6.749l48.525-39.221
		c27.454-22.209,72.055-30.601,96.181-5.518c36.758,38.126,98.279,101.882,103.205,132.027
		C-1042.933,1419.115-1053.24,1452.497-1076.315,1478.994z M-1564.839,1311.03c-27.089,0-49.117-22.028-49.117-49.071v-149.812
		c0-27.014,22.103-49.117,49.117-49.117h149.767c27.09,0,49.117,22.072,49.117,49.117v54.904c0,0.879,0.35,1.721,0.974,2.34
		l44.663,44.385c2.081,2.068,5.625,0.594,5.625-2.34v-99.152c0-55.41-45.104-100.467-100.468-100.467h-149.54
		c-55.487,0-100.468,44.981-100.468,100.468v149.538c0,55.487,44.981,100.468,100.468,100.468h100.266
		c2.938,0,4.41-3.551,2.335-5.63l-44.583-44.662c-0.619-0.62-1.459-0.968-2.335-0.968H-1564.839z"/>
</g>
<g>
	<path d="M-2169.454,1379.666c-6.794-41.364-56.55-95.771-115.974-157.429c-43.416-45.057-115.608-34.568-160.393,1.597
		l-18.06,14.594l0.137,0.137l-25.448,20.614l-45.104-45.104v-0.137c-23.623-22.163-29.962-25.127-33.064-26.587
		c-23.167-11.401-50.393-8.529-71.052,7.433c-20.568,15.825-30.191,41.273-25.129,66.447c4.287,21.48,19.017,36.438,31.696,48.433
		h0.137l52.856,52.537l0.594,0.592l45.651,45.605c-8.392,4.879-15.597,11.766-21.434,20.431
		c-19.793,29.598-12.313,69.822,16.965,91.576c12.176,9.166,24.809,12.039,35.936,14.548l89.432,20.248
		c4.743,1.094,9.486,2.235,14.184,3.375l0.775,0.183c9.167,2.235,18.607,4.515,28.412,6.294c11.219,2.098,21.389,3.238,30.966,3.556
		c1.414,0.046,2.827,0.046,4.241,0.046c46.654,0,91.985-21.297,124.32-58.328
		C-2176.295,1473.065-2161.974,1425.454-2169.454,1379.666z M-2244.656,1478.994c-23.031,26.314-56.095,42.002-88.384,42.002h-1.14
		c-0.594,0-1.186,0-1.825-0.046c-16.189-0.411-32.744-4.424-50.347-8.665l-4.606-1.094c-3.375-0.822-6.795-1.642-10.215-2.417
		l-89.889-20.385c-7.479-1.688-13.362-3.011-17.557-6.203c-8.756-6.476-11.401-18.515-5.883-26.815
		c2.918-4.288,6.704-8.437,18.333-8.437c2.143,0,4.195,0.091,6.203,0.274c10.671,1.186,20.886-4.606,25.492-14.229
		c4.606-9.668,2.6-21.252-4.97-28.823l-30.465-30.418c-3.192-3.192-6.476-6.476-9.805-9.713l-6.841-6.841
		c-0.502-0.594-1.049-1.14-1.186-1.231l-46.243-46.244c-3.239-3.192-6.249-6.202-8.985-8.893l-1.003-1.049
		c-0.684-0.729-1.413-1.413-2.006-1.961l-12.77-12.77c-2.508-2.463-5.153-5.016-7.981-7.661
		c-9.121-8.62-18.516-17.513-20.112-25.494c-1.505-7.343,1.323-14.593,7.479-19.382c6.34-4.88,14.138-5.792,20.887-2.508
		c0.137,0.091,3.877,2.189,18.333,15.643l0.501,0.501c1.323,1.231,2.646,2.508,4.014,3.74l7.753,7.434
		c6.384,6.156,13.818,13.544,22.484,22.255l1.14,1.186c4.833,4.925,10.079,10.307,15.779,16.19c1.003,1.003,2.052,1.961,2.371,2.189
		c0.227,0.227,0.547,0.501,0.912,0.775c0.684,0.639,1.46,1.186,1.961,1.551c1.231,0.912,2.417,1.641,3.557,2.28
		c0.593,0.364,1.094,0.638,1.733,1.003c0.593,0.274,1.186,0.547,1.414,0.638c1.094,0.502,2.235,1.003,3.192,1.277
		c0.32,0.137,0.639,0.274,0.866,0.319c0.639,0.228,1.278,0.455,2.418,0.729c1.869,0.502,3.83,0.913,5.062,0.958
		c0.958,0.228,1.732,0.365,1.915,0.274c3.512,0.365,7.297,0.183,10.49-0.501c1.916-0.32,3.923-0.822,6.112-1.597
		c4.378-1.505,8.436-3.786,12.085-6.749l48.525-39.221c27.454-22.209,72.055-30.601,96.181-5.518
		c36.758,38.126,98.279,101.882,103.205,132.027C-2211.274,1419.115-2221.581,1452.497-2244.656,1478.994z M-2733.179,1311.03
		c-27.089,0-49.117-22.028-49.117-49.071v-149.812c0-27.014,22.103-49.117,49.117-49.117h149.767
		c27.09,0,49.117,22.072,49.117,49.117v54.904c0,0.879,0.351,1.721,0.974,2.34l44.663,44.385c2.081,2.068,5.625,0.594,5.625-2.34
		v-99.152c0-55.41-45.104-100.467-100.469-100.467h-149.54c-55.487,0-100.469,44.981-100.469,100.468v149.538
		c0,55.487,44.981,100.468,100.469,100.468h100.267c2.938,0,4.41-3.551,2.335-5.63l-44.583-44.662
		c-0.619-0.62-1.459-0.968-2.335-0.968H-2733.179z"/>
</g>
<g>
	<g>
		<g>
			<g>
				<path style="fill:#FF5001;" d="M-3268.348,1379.666c-6.794-41.364-56.55-95.771-115.974-157.429
					c-43.416-45.057-115.609-34.568-160.393,1.597l-18.06,14.594l0.137,0.137l-25.448,20.614l-45.104-45.104v-0.137
					c-23.623-22.163-29.962-25.127-33.064-26.587c-23.167-11.401-50.393-8.529-71.052,7.433
					c-20.568,15.825-30.191,41.273-25.128,66.447c4.287,21.48,19.017,36.438,31.695,48.433h0.137l52.856,52.537l0.594,0.592
					l45.651,45.605c-8.392,4.879-15.597,11.766-21.434,20.431c-19.793,29.598-12.313,69.822,16.965,91.576
					c12.176,9.166,24.809,12.039,35.936,14.548l89.432,20.248c4.743,1.094,9.486,2.235,14.184,3.375l0.775,0.183
					c9.167,2.235,18.607,4.515,28.412,6.294c11.219,2.098,21.388,3.238,30.966,3.556c1.414,0.046,2.827,0.046,4.241,0.046
					c46.654,0,91.985-21.297,124.32-58.328C-3275.188,1473.065-3260.868,1425.454-3268.348,1379.666z M-3343.55,1478.994
					c-23.031,26.314-56.094,42.002-88.383,42.002h-1.14c-0.594,0-1.186,0-1.825-0.046c-16.189-0.411-32.744-4.424-50.347-8.665
					l-4.606-1.094c-3.375-0.822-6.795-1.642-10.216-2.417l-89.889-20.385c-7.479-1.688-13.362-3.011-17.557-6.203
					c-8.756-6.476-11.401-18.515-5.883-26.815c2.918-4.288,6.704-8.437,18.333-8.437c2.143,0,4.195,0.091,6.203,0.274
					c10.671,1.186,20.886-4.606,25.492-14.229c4.606-9.668,2.6-21.252-4.97-28.823l-30.465-30.418
					c-3.192-3.192-6.476-6.476-9.805-9.713l-6.841-6.841c-0.502-0.594-1.049-1.14-1.186-1.231l-46.243-46.244
					c-3.239-3.192-6.248-6.202-8.985-8.893l-1.003-1.049c-0.684-0.729-1.413-1.413-2.006-1.961l-12.77-12.77
					c-2.507-2.463-5.153-5.016-7.981-7.661c-9.121-8.62-18.516-17.513-20.111-25.494c-1.505-7.343,1.323-14.593,7.479-19.382
					c6.34-4.88,14.138-5.792,20.887-2.508c0.137,0.091,3.877,2.189,18.333,15.643l0.501,0.501c1.323,1.231,2.646,2.508,4.014,3.74
					l7.752,7.434c6.385,6.156,13.819,13.544,22.484,22.255l1.14,1.186c4.833,4.925,10.078,10.307,15.779,16.19
					c1.003,1.003,2.052,1.961,2.372,2.189c0.227,0.227,0.547,0.501,0.912,0.775c0.684,0.639,1.46,1.186,1.961,1.551
					c1.231,0.912,2.417,1.641,3.557,2.28c0.592,0.364,1.094,0.638,1.732,1.003c0.594,0.274,1.186,0.547,1.414,0.638
					c1.094,0.502,2.235,1.003,3.192,1.277c0.32,0.137,0.639,0.274,0.866,0.319c0.639,0.228,1.278,0.455,2.418,0.729
					c1.869,0.502,3.83,0.913,5.062,0.958c0.958,0.228,1.732,0.365,1.915,0.274c3.512,0.365,7.297,0.183,10.49-0.501
					c1.916-0.32,3.922-0.822,6.111-1.597c4.378-1.505,8.436-3.786,12.085-6.749l48.525-39.221
					c27.454-22.209,72.055-30.601,96.181-5.518c36.758,38.126,98.279,101.882,103.205,132.027
					C-3310.167,1419.115-3320.474,1452.497-3343.55,1478.994z M-3832.073,1311.03c-27.089,0-49.117-22.028-49.117-49.071v-149.812
					c0-27.014,22.103-49.117,49.117-49.117h149.767c27.09,0,49.117,22.072,49.117,49.117v54.904c0,0.879,0.35,1.721,0.974,2.34
					l44.663,44.385c2.081,2.068,5.624,0.594,5.624-2.34v-99.152c0-55.41-45.104-100.467-100.468-100.467h-149.54
					c-55.487,0-100.469,44.981-100.469,100.468v149.538c0,55.487,44.981,100.468,100.469,100.468h100.266
					c2.938,0,4.41-3.551,2.335-5.63l-44.583-44.662c-0.619-0.62-1.459-0.968-2.335-0.968H-3832.073z"/>
			</g>
		</g>
	</g>
</g>
<g>
	<g>
		<g>
			<g>
				<path style="fill:#FF5001;" d="M-3430.625,404.912c-4.247-25.859-35.353-59.872-72.502-98.418
					c-27.142-28.168-72.274-21.61-100.271,0.998l-11.29,9.123l0.085,0.086l-15.909,12.887l-28.197-28.197v-0.086
					c-14.768-13.856-18.731-15.709-20.67-16.621c-14.483-7.128-31.503-5.332-44.419,4.647c-12.858,9.893-18.874,25.802-15.709,41.54
					c2.68,13.428,11.889,22.78,19.815,30.278h0.086l33.043,32.844l0.371,0.37l28.539,28.51c-5.246,3.05-9.75,7.356-13.4,12.773
					c-12.374,18.503-7.698,43.65,10.606,57.249c7.612,5.73,15.51,7.526,22.466,9.095l55.909,12.659
					c2.965,0.684,5.93,1.397,8.867,2.11l0.484,0.114c5.731,1.397,11.633,2.823,17.762,3.935c7.013,1.311,13.371,2.024,19.359,2.223
					c0.884,0.029,1.767,0.029,2.651,0.029c29.166,0,57.505-13.314,77.72-36.464
					C-3434.902,463.302-3425.949,433.537-3430.625,404.912z M-3477.638,467.008c-14.398,16.451-35.068,26.258-55.254,26.258h-0.713
					c-0.371,0-0.741,0-1.141-0.029c-10.121-0.257-20.47-2.765-31.475-5.417l-2.88-0.684c-2.11-0.514-4.248-1.027-6.386-1.511
					l-56.195-12.744c-4.675-1.055-8.353-1.882-10.976-3.878c-5.474-4.048-7.128-11.575-3.678-16.764
					c1.824-2.681,4.191-5.275,11.461-5.275c1.34,0,2.623,0.057,3.878,0.171c6.671,0.741,13.057-2.88,15.937-8.896
					c2.88-6.044,1.625-13.286-3.107-18.019l-19.045-19.016c-1.996-1.996-4.048-4.048-6.13-6.072l-4.276-4.277
					c-0.314-0.371-0.656-0.713-0.741-0.77l-28.909-28.91c-2.025-1.996-3.906-3.877-5.617-5.559l-0.627-0.656
					c-0.427-0.456-0.883-0.883-1.254-1.226l-7.983-7.983c-1.567-1.54-3.221-3.136-4.989-4.79
					c-5.702-5.389-11.575-10.948-12.573-15.938c-0.941-4.591,0.827-9.123,4.675-12.117c3.963-3.051,8.839-3.621,13.058-1.568
					c0.086,0.057,2.424,1.368,11.461,9.78l0.313,0.313c0.827,0.77,1.654,1.568,2.509,2.338l4.847,4.648
					c3.991,3.849,8.639,8.467,14.056,13.913l0.713,0.741c3.021,3.079,6.301,6.443,9.865,10.121c0.627,0.627,1.283,1.226,1.482,1.368
					c0.142,0.142,0.342,0.313,0.57,0.484c0.427,0.4,0.913,0.741,1.226,0.97c0.77,0.57,1.511,1.026,2.224,1.426
					c0.37,0.228,0.684,0.399,1.083,0.627c0.371,0.171,0.741,0.342,0.884,0.399c0.684,0.314,1.397,0.627,1.996,0.798
					c0.2,0.086,0.4,0.171,0.542,0.2c0.4,0.143,0.799,0.285,1.512,0.456c1.169,0.314,2.394,0.571,3.164,0.599
					c0.599,0.143,1.083,0.228,1.197,0.171c2.195,0.228,4.562,0.114,6.557-0.313c1.198-0.2,2.452-0.514,3.821-0.998
					c2.737-0.941,5.274-2.367,7.555-4.219l30.335-24.519c17.164-13.884,45.046-19.13,60.128-3.45
					c22.98,23.835,61.44,63.693,64.52,82.538C-3456.769,429.574-3463.212,450.444-3477.638,467.008z M-3783.043,362.004
					c-16.935,0-30.706-13.771-30.706-30.677V237.67c0-16.888,13.818-30.706,30.706-30.706h93.628
					c16.936,0,30.706,13.799,30.706,30.706v34.323c0,0.549,0.219,1.076,0.609,1.463l27.922,27.748
					c1.301,1.293,3.516,0.371,3.516-1.463v-61.986c0-34.64-28.197-62.808-62.809-62.808h-93.486
					c-34.688,0-62.809,28.12-62.809,62.809v93.485c0,34.688,28.12,62.809,62.809,62.809h62.683c1.836,0,2.757-2.22,1.459-3.519
					l-27.871-27.921c-0.387-0.388-0.912-0.605-1.46-0.605H-3783.043z"/>
			</g>
		</g>
		<g>
			<g>
				<path d="M-3212.32,301.562v-55.339h-53.4v-67.941h-62.125v41.255c0,7.755-2.394,14.17-7.27,19.159
					c-4.847,5.018-11.005,7.527-18.418,7.527h-13.627v55.339h34.469v97.534c0,20.413,3.308,36.978,9.95,49.78
					c6.643,12.773,15.624,22.38,26.942,28.852c11.319,6.472,24.177,10.293,38.575,11.404c14.398,1.14,29.366,0.257,44.904-2.651
					v-53.885c-8.41,1.312-16.735,1.711-25.004,1.198c-8.239-0.457-15.054-3.194-20.385-8.211
					c-5.332-5.018-8.012-13.856-8.012-26.486v-97.534H-3212.32z"/>
				<path d="M-3000.031,267.092c-17.477-16.165-42.395-24.262-74.754-24.262c-26.201,0-48.439,5.759-66.714,17.248
					c-18.276,11.461-30.677,28.226-37.149,50.236l53.885,19.387c3.222-11.005,9.067-19.33,17.477-24.975
					c8.41-5.674,18.275-8.525,29.622-8.525c12.915,0,22.467,3.022,28.625,9.01c6.13,5.987,9.209,12.203,9.209,18.674
					c0,9.722-6.643,15.709-19.9,17.962l-40.285,6.785c-15.196,2.595-29.594,6.5-43.194,11.661
					c-13.571,5.189-24.604,12.773-32.986,22.808c-8.44,10.035-12.631,23.293-12.631,39.801c0,22.637,7.783,39.886,23.293,51.689
					c15.539,11.804,34.783,17.706,57.763,17.706c16.821,0,30.335-2.994,40.513-8.981c10.206-5.987,19.33-13.998,27.427-24.006
					l4.847,29.594h61.156V330.671C-2973.829,304.47-2982.554,283.287-3000.031,267.092z M-3039.832,387.464
					c0,17.79-4.932,31.076-14.797,39.801c-9.865,8.752-22.095,13.086-36.665,13.086c-9.038,0-16.735-1.767-23.036-5.331
					c-6.329-3.535-9.466-9.209-9.466-16.964c0-13.942,10.834-22.637,32.502-26.23l31.077-5.331
					c9.722-1.625,16.508-3.707,20.385-6.301V387.464z"/>
				<path d="M-2709.367,301.79c-9.066-18.589-21.696-33.072-37.861-43.421c-16.195-10.35-34.811-15.538-55.824-15.538
					c-15.852,0-29.936,2.851-42.224,8.496c-12.288,5.673-22.494,12.858-30.563,21.582V139.451h-66.03v349.453h60.185l3.878-30.079
					c8.41,8.724,18.759,16.479,31.076,23.294c12.288,6.785,26.857,10.178,43.678,10.178c21.012,0,39.629-5.103,55.824-15.282
					c16.165-10.207,28.795-24.69,37.861-43.45c9.038-18.76,13.572-40.77,13.572-66.001
					C-2695.795,342.332-2700.328,320.408-2709.367,301.79z M-2779.759,417.315c-11.005,11.49-24.091,17.22-39.316,17.22
					c-15.51,0-28.881-5.73-40.028-17.22c-11.177-11.49-16.736-28.083-16.736-49.751c0-21.668,5.559-38.347,16.736-49.98
					c11.147-11.66,24.519-17.477,40.028-17.477c15.225,0,28.311,5.816,39.316,17.477c11.005,11.633,16.508,28.311,16.508,49.98
					C-2763.251,389.232-2768.754,405.825-2779.759,417.315z"/>
				<path d="M-2449.55,301.305c-11.005-18.589-25.888-32.986-44.647-43.193c-18.76-10.178-39.801-15.281-63.094-15.281
					c-23.635,0-44.733,5.103-63.322,15.281c-18.646,10.207-33.414,24.604-44.419,43.193c-11.005,18.617-16.507,40.713-16.507,66.259
					c0,25.573,5.331,47.641,16.022,66.23c10.663,18.646,25.232,33.015,43.678,43.222c18.446,10.178,39.316,15.282,62.609,15.282
					c23.607,0,44.961-5.103,64.063-15.282c19.073-10.207,34.213-24.576,45.388-43.222c11.148-18.589,16.736-40.657,16.736-66.23
					C-2433.042,342.018-2438.545,319.922-2449.55,301.305z M-2509.023,405.654c-5.645,10.207-12.915,17.733-21.81,22.58
					c-8.896,4.847-18.389,7.27-28.396,7.27c-14.911,0-27.769-5.559-38.575-16.735c-10.863-11.148-16.28-28.226-16.28-51.205
					c0-22.98,5.588-40.114,16.764-51.433c11.148-11.347,24.177-16.992,39.059-16.992c15.196,0,28.625,5.645,40.286,16.992
					c11.661,11.319,17.477,28.453,17.477,51.433C-2500.498,382.788-2503.349,395.475-2509.023,405.654z"/>
			</g>
		</g>
	</g>
</g>
</svg>
