<?xml version="1.0" encoding="UTF-8"?>
<svg xmlns="http://www.w3.org/2000/svg" viewBox="0 0 244.4 26.015">
  <g fill="#fff">
    <path d="m8.1 5.3c1.1-.7 2.3-1 3.6-1 .7 0 1.4.1 2.1.3.6.2 1.2.5 1.8.9.5.4.9.9 1.3 1.5.3.6.6 1.3.7 2h4.8c-.2-1.3-.6-2.6-1.2-3.8-.6-1.1-1.4-2-2.3-2.8-1-.8-2.1-1.4-3.3-1.8-1.3-.4-2.6-.6-4-.6-2.1 0-4.1.5-5.9 1.5-1.8 1.1-3.2 2.7-4.2 4.5-2 4.4-2 9.5 0 14 .9 1.8 2.4 3.4 4.1 4.4 1.8 1 3.9 1.6 6 1.5 1.4 0 2.8-.2 4.2-.7 1.2-.4 2.3-1.1 3.3-1.9 1.8-1.6 3-3.8 3.3-6.2h-4.8c-.1.7-.4 1.3-.7 1.9-.3.5-.8 1-1.3 1.4s-1.1.7-1.7.9c-.7.2-1.4.3-2.1.3-1.3 0-2.5-.3-3.6-1s-1.9-1.7-2.4-2.9c-1.2-3.1-1.2-6.4 0-9.5.4-1.1 1.3-2.1 2.3-2.9z"></path>
    <path d="m43.5 1.6c-3.7-2-8.2-2-11.9 0-1.8 1-3.2 2.6-4.2 4.4-2 4.4-2 9.5 0 14 .9 1.8 2.4 3.4 4.2 4.4 3.7 2.1 8.2 2.1 11.9 0 1.8-1 3.2-2.6 4.2-4.4 2-4.4 2-9.6 0-14-.9-1.8-2.4-3.4-4.2-4.4zm0 16.1c-.5 1.2-1.3 2.2-2.4 2.9-2.2 1.3-4.9 1.3-7.1 0-1.1-.7-1.9-1.7-2.4-2.9-1.2-3.1-1.2-6.4 0-9.5.5-1.2 1.3-2.2 2.4-2.9 2.2-1.3 4.9-1.3 7.1 0 1.1.7 1.9 1.7 2.4 2.9 1.2 3.1 1.2 6.5 0 9.5z"></path>
    <path d="m69.5 17.2h-.2l-11.6-16.8h-4.3v25.2h4.8v-16.8h.2l11.7 16.8h4.2v-25.2h-4.8z"></path>
    <path d="m96.2 13.6c-.7-.6-1.5-1.1-2.4-1.5s-1.9-.7-2.8-.9l-2.3-.6c-.5-.1-1-.3-1.5-.5s-.9-.4-1.4-.7c-.4-.2-.7-.6-1-.9-.2-.4-.4-.9-.3-1.3 0-.6.2-1.2.5-1.6.4-.5.9-.9 1.5-1.1.8-.3 1.6-.4 2.4-.4 1.1-.1 2.3.3 3.2.9.8.6 1.3 1.5 1.4 2.5h4.6c0-1.4-.4-2.7-1.2-3.8s-1.9-2-3.2-2.6c-1.5-.7-3.1-1-4.8-.9-1.6 0-3.3.3-4.8.9-1.3.4-2.4 1.3-3.3 2.5-.8 1.1-1.2 2.5-1.2 3.9-.1 1.7.6 3.3 1.8 4.4 1.4 1.2 3.1 2 5 2.4l2.8.7c.8.2 1.6.5 2.4.8.6.2 1.1.6 1.5 1.1.4.4.6 1 .6 1.6 0 .7-.2 1.3-.6 1.8-.5.5-1 1-1.7 1.2-.8.3-1.7.5-2.5.4-.9 0-1.7-.1-2.6-.4-.7-.3-1.3-.7-1.8-1.3s-.8-1.4-.8-2.2h-4.7c0 1.5.5 3.1 1.3 4.4.9 1.2 2 2.1 3.4 2.7 1.6.6 3.4 1 5.2.9 1.8 0 3.5-.3 5.2-.9 1.3-.5 2.5-1.4 3.3-2.6s1.2-2.5 1.2-3.9c0-1-.2-1.9-.6-2.8-.5-.9-1.1-1.7-1.8-2.2z"></path>
    <path d="m119.4 1.6c-3.7-2-8.2-2-11.9 0-1.8 1.1-3.2 2.6-4.2 4.4-2 4.4-2 9.5 0 14 .9 1.8 2.4 3.4 4.2 4.4 3.7 2.1 8.2 2.1 11.9 0 1.8-1 3.2-2.6 4.2-4.4 2-4.4 2-9.6 0-14-.9-1.8-2.4-3.4-4.2-4.4zm0 16.1c-.5 1.2-1.3 2.2-2.4 2.9-2.2 1.3-4.9 1.3-7.1 0-1.1-.7-1.9-1.7-2.4-2.9-1.2-3.1-1.2-6.4 0-9.5.5-1.2 1.3-2.2 2.4-2.9 2.2-1.3 4.9-1.3 7.1 0 1.1.7 1.9 1.7 2.4 2.9 1.2 3.1 1.2 6.5 0 9.5z"></path>
    <path d="m134.2.4h-4.8v25.2h15.8v-4h-11z"></path>
    <path d="m149 .4h4.8v25.2h-4.8z"></path>
    <path d="m175.3 1.9c-2-1.1-4.2-1.6-6.5-1.5h-8.8v25.2h8.7c2.3.1 4.6-.5 6.6-1.5 1.8-1 3.3-2.5 4.2-4.3 2-4.3 2-9.2 0-13.5-.9-1.9-2.4-3.4-4.2-4.4zm0 15.8c-.5 1.2-1.4 2.2-2.6 2.8-1.3.7-2.8 1-4.3.9h-3.6v-17h3.7c1.5 0 2.9.3 4.2.9 1.1.6 2 1.6 2.6 2.8 1.2 3.2 1.2 6.6 0 9.6z"></path>
    <path d="m190.4.4-8.8 25.2h5.1l2-6.1h9.4l2 6.1h5.1l-8.8-25.2zm-.4 15.3 3.3-10h.2l3.3 10z"></path>
    <path d="m204.4 4.4h7.8v21.2h4.8v-21.2h7.8v-4h-20.3z"></path>
    <path d="m232.5 21.6v-6.6h10.9v-4h-10.9v-6.6h11.8v-4h-16.6v25.2h16.7v-4z"></path>
  </g>
</svg>
